<?xml version="1.0" encoding="UTF-8" standalone="no"?>
<!-- Created with Inkscape (http://www.inkscape.org/) -->

<svg
   width="80.995644mm"
   height="82.30365mm"
   viewBox="0 0 80.995644 82.30365"
   version="1.1"
   id="svg1"
   inkscape:version="1.4.2 (f4327f4, 2025-05-13)"
   sodipodi:docname="mvc_icon.svg"
   xmlns:inkscape="http://www.inkscape.org/namespaces/inkscape"
   xmlns:sodipodi="http://sodipodi.sourceforge.net/DTD/sodipodi-0.dtd"
   xmlns="http://www.w3.org/2000/svg"
   xmlns:svg="http://www.w3.org/2000/svg">
  <sodipodi:namedview
     id="namedview1"
     pagecolor="#ffffff"
     bordercolor="#000000"
     borderopacity="0.25"
     inkscape:showpageshadow="2"
     inkscape:pageopacity="0.0"
     inkscape:pagecheckerboard="0"
     inkscape:deskcolor="#d1d1d1"
     inkscape:document-units="mm"
     inkscape:zoom="0.71891835"
     inkscape:cx="264.98141"
     inkscape:cy="483.36504"
     inkscape:window-width="1920"
     inkscape:window-height="1009"
     inkscape:window-x="-8"
     inkscape:window-y="-8"
     inkscape:window-maximized="1"
     inkscape:current-layer="layer1" />
  <defs
     id="defs1" />
  <g
     inkscape:label="Lag 1"
     inkscape:groupmode="layer"
     id="layer1"
     transform="translate(-32.834397,-18.344931)">
    <path
       style="fill:#000000;stroke-width:0.264583"
       id="path1"
       d="m 32.834397,28.205557 c 0.341596,3.253552 0.794962,6.488329 1.074917,9.750054 0.526373,8.161107 0.568794,16.343384 0.619559,24.518247 0.01791,7.756056 -0.02574,15.51106 0.08117,23.266595 0.152839,2.892028 0.104444,5.806972 0.40268,8.690539 0.07117,0.3107 0.08513,0.702725 0.42469,0.884018 1.351164,0.721391 2.695707,1.485235 4.141949,1.989656 0.366175,0.127714 0.77062,-0.08859 1.154692,-0.142293 0.843058,-0.117885 3.40297,-0.52663 4.017431,-0.623557 6.522651,-0.960019 13.111493,-1.319157 19.6968,-1.444212 1.134287,0.0132 2.269093,0.0028 3.402859,0.0396 2.473248,0.0803 4.036047,0.204454 6.48988,0.569158 3.371172,0.501044 6.698612,1.287201 10.025292,2.015318 4.622678,0.949698 9.265912,1.800053 13.849136,2.9299 0,0 -3.058922,-2.333164 -3.058922,-2.333164 v 0 C 90.63007,97.28537 86.050323,96.518493 81.510938,95.549092 78.174857,94.826308 74.837958,94.043414 71.456552,93.555456 68.95121,93.193922 67.473411,93.090213 64.953379,93.024961 c -1.130668,-0.02928 -2.262055,-0.01347 -3.393083,-0.02019 -6.631032,0.127555 -13.256476,0.515061 -19.833782,1.401458 -0.45184,0.05858 -3.383347,0.449286 -4.132752,0.513905 -0.381395,0.03289 -1.389322,-0.24875 -1.147427,0.04795 0.676323,0.829548 1.794793,1.168763 2.656729,1.803294 0.119602,0.08805 -0.315423,-0.04733 -0.417714,-0.154998 -0.110442,-0.116252 -0.106931,-0.302347 -0.160398,-0.453522 -0.465714,-2.891645 -0.415454,-5.857163 -0.653767,-8.769596 -0.227089,-7.788804 -0.334682,-15.578005 -0.298564,-23.370577 -0.03578,-8.141848 0.0099,-16.289567 -0.379579,-24.424166 -0.05422,-0.888106 -0.09447,-1.777174 -0.162652,-2.664317 -0.178065,-2.316954 -0.575657,-4.612455 -0.675196,-6.934716 z" />
    <path
       style="fill:#000000;stroke-width:0.264583"
       id="path2"
       d="m 38.741024,75.936667 c 4.001384,0.620221 8.029604,1.063379 12.051334,1.530768 0,0 -2.91856,-2.172086 -2.91856,-2.172086 v 0 c -4.115401,-0.47086 -8.227446,-0.983112 -12.304512,-1.723898 z" />
    <path
       style="fill:#000000;stroke-width:0.264583"
       id="path3"
       d="m 39.575491,62.988724 c 3.218878,-0.108059 6.437556,-0.241269 9.653209,-0.427869 0.507706,-0.04572 1.015415,-0.09144 1.523121,-0.137168 0,0 -3.106816,-2.213416 -3.106816,-2.213416 v 0 c -0.497515,0.04796 -0.995027,0.09592 -1.492541,0.14388 -3.251841,0.205335 -6.510325,0.354994 -9.769433,0.315116 z" />
    <path
       style="fill:#000000;stroke-width:0.264583"
       id="path4"
       d="m 38.638773,47.157113 c 2.807105,-0.024 5.615326,0.09314 8.421156,0.179088 0,0 -3.039425,-2.221597 -3.039425,-2.221597 v 0 c -2.852745,-0.076 -5.703813,-0.203219 -8.556755,-0.264282 z" />
    <path
       style="fill:#000000;stroke-width:0.264583"
       id="path5"
       d="m 56.663981,49.805777 c 0.538983,-2.506149 0.66875,-5.079441 0.822632,-7.631721 0.0506,-0.351766 0.06981,-3.54788 0.305485,-3.619807 0.08856,-0.02703 0.235133,0.270452 0.150146,0.233699 -1.008602,-0.436182 -1.973988,-0.966187 -2.960979,-1.449282 1.458529,1.818897 2.58784,3.872791 3.822991,5.844157 1.0663,1.699633 4.366554,5.330457 5.067562,1.970045 0.24288,-1.493835 0.839658,-2.889092 1.317337,-4.315468 0.282173,-1.022633 0.822989,-1.786636 1.706612,-2.353805 0.04992,-0.03453 0.534594,-0.394002 0.65767,-0.400063 0.07138,-0.0035 0.236347,0.159705 0.172963,0.12669 -1.071319,-0.558014 -2.081138,-1.244647 -3.198831,-1.70276 -0.166131,-0.06809 0.17018,0.317624 0.231299,0.486447 0.08473,0.234037 0.13652,0.478716 0.20478,0.718074 0.450635,1.868577 0.480893,3.797678 0.753052,5.693643 0.243421,1.607349 0.551478,3.211165 1.013856,4.770958 0.517523,1.655138 3.226679,4.247097 4.550508,2.400591 0.04566,-0.09986 0.09133,-0.199721 0.136994,-0.29958 0,0 -3.453988,-1.947579 -3.453988,-1.947579 v 0 c -0.03182,0.07278 -0.06363,0.145555 -0.09545,0.218334 -0.87916,1.030169 -4.466971,-2.430819 3.031286,2.049971 0.06443,0.03851 -0.150296,-0.03688 -0.209156,-0.08346 -0.225242,-0.178252 -0.292557,-0.415057 -0.411329,-0.666935 -0.53068,-1.528397 -0.811183,-3.138964 -1.07596,-4.730874 -0.299905,-1.900561 -0.330202,-3.831773 -0.713361,-5.720451 -0.05828,-0.244448 -0.117949,-0.488569 -0.174848,-0.73334 -0.0478,-0.205658 0.02997,-0.491657 -0.139258,-0.617924 -2.638472,-1.968725 -2.839273,-2.949159 -4.60198,-1.685501 -0.923491,0.654277 -1.51662,1.484167 -1.811279,2.592694 -0.46365,1.445609 -1.061207,2.849938 -1.371774,4.341812 -0.02318,0.131075 -0.03661,0.264256 -0.06954,0.393227 -0.01984,0.07775 -0.03953,0.160142 -0.08808,0.22403 -0.01712,0.02252 -0.108831,-0.01148 -0.08482,0.0035 1.027006,0.640257 2.070708,1.253339 3.106063,1.880007 -0.1367,-0.118033 -0.292042,-0.217418 -0.410097,-0.354099 -0.187534,-0.217117 -0.333689,-0.466789 -0.500533,-0.700183 -1.259874,-1.95544 -2.401014,-3.988308 -3.748066,-5.886223 -1.282483,-0.805865 -2.504393,-1.717325 -3.847449,-2.417595 -0.376704,-0.196414 -0.549529,0.55617 -0.562595,0.660537 -0.130807,1.044869 0.07056,2.276356 -0.09044,3.324148 -0.136067,2.519461 -0.255339,5.075643 -0.910437,7.524047 z" />
    <path
       style="fill:#000000;stroke-width:0.264583"
       id="path6"
       d="m 54.989766,56.624198 c 0.815573,3.091659 1.696017,6.165966 2.585263,9.237218 0.73135,2.009108 0.982644,4.241977 2.117725,6.085337 1.091729,1.276173 3.515418,3.633793 4.617672,1.784723 0.28145,-0.472141 0.315015,-0.896308 0.43688,-1.442119 0.346638,-3.031884 0.508394,-6.081517 0.757293,-9.122913 0.158374,-0.7294 0.128841,-2.962349 0.801105,-3.46507 0.06118,-0.04575 0.148254,-0.03692 0.22238,-0.05538 0.549174,0.106156 1.025094,0.382857 1.591008,0.447731 0,0 -3.156772,-2.382999 -3.156772,-2.382999 v 0 c -0.579427,-0.152435 -1.146178,-0.467035 -1.747891,-0.23881 -0.10387,0.07346 -0.224311,0.127833 -0.31161,0.220376 -0.810374,0.859063 -0.586023,2.652435 -0.804159,3.707249 -0.19544,3.017851 -0.343061,6.048968 -0.776237,9.043083 -0.08665,0.343262 -0.178382,0.903226 -0.393594,1.241816 -0.0516,0.08118 -0.119968,0.16069 -0.207513,0.200555 -0.06227,0.02836 -0.262657,-0.04943 -0.204888,-0.01275 1.017548,0.646009 2.069724,1.235792 3.104589,1.853686 -0.108225,-0.07119 -0.216448,-0.14238 -0.324673,-0.213571 -1.36411,-1.696117 -1.496623,-4.064368 -2.298142,-6.028251 -0.901705,-3.023725 -1.788768,-6.053566 -2.45872,-9.138626 z" />
    <path
       style="fill:#000000;stroke-width:0.264583"
       id="path7"
       d="m 59.834382,75.388874 c -0.914532,0.162925 -2.033672,0.160486 -2.834584,0.708535 -0.154927,0.106014 -0.273886,0.256808 -0.410829,0.38521 -0.768252,0.95758 -0.849527,2.193904 -0.912278,3.372035 -0.03565,1.355103 0.470514,2.630765 1.09075,3.811418 0.553212,0.941658 1.303909,1.710944 2.212552,2.307432 1.282649,0.650499 3.536719,2.587815 5.492419,2.31027 0.291153,-0.04132 0.734422,-0.226386 1.010129,-0.331357 0.80973,-0.398047 1.187473,-1.202766 1.485151,-2.008123 0,0 -3.448476,-1.909363 -3.448476,-1.909363 v 0 c -0.247108,0.713184 -0.556885,1.406694 -1.300911,1.710864 -0.338389,0.109038 -0.557507,0.205547 -0.919814,0.217101 -1.582846,0.05048 -4.244274,-1.818788 1.356868,1.427449 -0.946266,-0.51017 -1.705406,-1.226672 -2.302962,-2.124224 -0.663205,-1.091266 -1.16214,-2.323472 -1.193488,-3.613766 0.05683,-1.065157 0.07683,-2.222529 0.775264,-3.091495 0.853117,-0.700468 2.028377,-0.797861 3.097027,-0.849363 z" />
    <path
       style="fill:#000000;stroke-width:0.264583"
       id="path8"
       d="m 88.677077,35.114999 c -0.741281,6.088079 -0.468553,12.242361 -0.371885,18.357983 0.119144,7.8722 0.260141,15.745957 0.55068,23.614043 0.09328,2.34831 0.349837,4.684231 0.565822,7.022896 0.03201,0.200557 0.05057,0.647245 0.277312,0.780754 1.251794,0.7371 2.526633,1.444133 3.853503,2.035506 0.102751,0.04579 2.404988,-0.151855 2.49451,-0.157626 2.639248,-0.151566 5.279511,-0.249676 7.920571,-0.112585 1.34984,0.128735 2.67823,0.393128 4.00453,0.661977 1.33843,0.229706 2.70651,0.31487 4.06251,0.250446 0.19905,-0.09262 0.42356,-0.143436 0.59714,-0.277852 1.26535,-0.979868 1.17458,-4.163488 1.19827,-5.537398 -0.1825,-5.509562 -0.51757,-11.012271 -0.74266,-16.520171 -0.1578,-5.360416 -0.73202,-10.693426 -1.0637,-16.043198 -0.2097,-3.556336 -0.26068,-7.1185 -0.27129,-10.680043 -0.11004,-1.382049 0.20157,-2.821324 -0.0966,-4.188982 -1.20435,-0.60222 -2.36501,-1.301173 -3.61306,-1.806662 -0.0632,-0.02559 -0.20468,0.362545 -0.38136,0.559893 -0.40576,0.453231 -0.93872,0.708747 -1.47543,0.964993 -1.98042,0.626835 -4.06607,0.906714 -6.1185,1.210644 -1.606871,0.233132 -3.225936,0.349295 -4.847929,0.39371 -1.025663,-0.03354 -2.073498,0.111877 -3.089635,-0.057 -1.584645,-0.262636 -3.826333,-1.837839 1.93168,1.419987 0,0 -3.700314,-1.428721 -3.700314,-1.428721 v 0 c 1.933292,1.103243 2.984061,2.146027 4.938265,2.366317 1.032053,0.06323 2.068883,0.0069 3.101896,-0.0052 1.615037,-0.06522 3.223667,-0.222121 4.821637,-0.4684 2.0889,-0.32635 4.2285,-0.565131 6.22568,-1.282311 0.60459,-0.308099 1.1559,-0.604644 1.62454,-1.107265 0.0751,-0.08059 0.12509,-0.181592 0.19318,-0.268211 0.0339,-0.04307 0.15854,-0.09107 0.11213,-0.120169 -1.10046,-0.689903 -2.25617,-1.287475 -3.38425,-1.931212 0.2733,0.06287 0.18318,-0.0092 0.24149,0.417671 0.16223,1.187445 0.0147,2.398223 0.0925,3.590531 0.0595,3.587689 0.16329,7.175651 0.37985,10.75762 0.351,5.364546 0.96718,10.708343 1.16202,16.082629 0.20468,5.471096 0.4899,10.940155 0.58865,16.414593 -0.0393,1.087679 0.0427,4.359855 -1.09038,5.082159 -0.15142,0.09653 -0.34061,0.113882 -0.51092,0.17082 -1.34596,0.03013 -2.69704,-0.0677 -4.01849,-0.333631 -1.31812,-0.272669 -2.65055,-0.481494 -3.99435,-0.576249 -2.646695,-0.08144 -5.291904,0.03565 -7.936456,0.146013 -0.629161,0.02598 -1.258057,0.07902 -1.887715,0.07207 -0.204041,-0.0024 -0.77216,-0.165994 -0.610777,-0.04112 0.917559,0.709986 1.975471,1.217587 2.948254,1.849798 0.09621,0.06253 -0.244927,-0.04776 -0.315129,-0.138525 -0.08342,-0.10785 -0.066,-0.264589 -0.099,-0.396883 -0.27628,-2.372868 -0.656378,-4.734449 -0.808799,-7.121036 -0.485936,-7.896796 -0.692613,-15.806933 -0.78649,-23.717641 -0.02217,-6.02021 -0.199131,-12.101854 0.780817,-18.064496 z" />
    <path
       style="fill:#000000;stroke-width:0.264583"
       id="path9"
       d="m 98.753333,50.162406 c -0.241662,-0.353927 -1.240403,-1.826413 -0.542186,-2.180333 0.07964,-0.04037 0.177024,-0.02347 0.265538,-0.03522 1.210368,0.479809 3.343865,1.612332 -2.604979,-1.49938 -0.09061,-0.0474 0.1489,0.14188 0.208748,0.224793 0.191503,0.265289 0.153123,0.239527 0.164566,0.527211 0,0 3.507859,1.833279 3.507859,1.833279 v 0 c 0.02688,-0.144404 0.08845,-0.286538 0.08064,-0.433218 -0.0039,-0.07316 -0.218448,-0.616855 -0.291176,-0.664601 -1.150499,-0.755285 -2.701986,-2.448724 -4.351549,-2.194277 -0.125527,0.07137 -0.269984,0.1167 -0.376582,0.214101 -0.810051,0.740187 -0.10695,1.906738 0.311928,2.634543 z" />
    <path
       style="fill:#000000;stroke-width:0.264583"
       id="path10"
       d="m 98.521479,58.304614 c -0.06934,-0.708892 -0.08457,-1.911844 0.861155,-1.967695 1.201566,0.965798 -0.211132,-0.190865 -2.917102,-1.558404 -0.108789,-0.05498 0.17536,0.17204 0.242165,0.273997 0.06186,0.09442 0.09302,0.205703 0.139536,0.308555 0,0 3.580597,1.678067 3.580597,1.678067 v 0 c -0.454685,-1.769465 -2.443699,-3.041277 -4.314353,-2.943151 -0.985266,0.444603 -1.194662,1.447974 -1.139362,2.456378 z" />
    <path
       style="fill:#000000;stroke-width:0.264583"
       id="path11"
       d="m 99.017819,66.538479 c 0.06808,-0.102528 0.127458,-0.211404 0.204248,-0.307586 0.07688,-0.09629 0.24561,-0.327879 0.426987,-0.287917 0.05663,0.01249 0.178493,0.14581 0.127341,0.118502 -3.135013,-1.673611 -4.269216,-2.5927 -3.183853,-1.722533 0,0 3.608978,1.6724 3.608978,1.6724 v 0 c -0.17714,-1.534049 -2.919421,-3.171558 -4.127421,-2.073471 -0.214937,0.195379 -0.346874,0.423751 -0.508082,0.661974 z" />
    <path
       style="fill:#000000;stroke-width:0.264583"
       id="path12"
       d="m 98.922648,74.519987 c -0.101404,-0.312261 0.408485,-2.142386 0.846847,-1.26979 0,0 -3.106447,-2.480818 -3.106447,-2.480818 v 0 c -0.930542,0.07877 -1.188907,1.171932 -1.265996,1.954225 z" />
    <path
       style="fill:#d4aa00;fill-opacity:1;stroke-width:0.264583"
       id="path13"
       d="m 76.955371,44.355691 c 1.378773,0.36507 2.80334,0.465384 4.223734,0.457931 1.272818,-0.146204 2.618881,0.04656 3.871119,-0.252775 0.07664,-0.06102 0.197411,-0.09066 0.229939,-0.183076 0.281141,-0.798793 -0.962279,-1.919539 -1.427798,-2.4624 -0.159866,-0.185505 -0.325096,-0.36652 -0.479597,-0.556514 -0.364191,-0.44785 -0.525626,-0.679104 -0.825576,-1.164461 -0.08488,-0.13735 -0.16287,-0.278884 -0.241009,-0.420182 -0.03613,-0.06533 -0.0346,-0.166817 -0.101701,-0.199528 -0.04045,-0.01971 -0.03495,0.08293 -0.05242,0.124397 -3.85015,-1.812819 -3.994054,-2.798636 -3.328582,-1.295665 0.329313,0.743757 0.692642,1.467469 1.064815,2.190848 0.443561,0.965658 1.314948,1.700282 1.490295,2.771577 0.01341,0.918276 -0.283154,1.799828 -0.452641,2.69471 -0.108966,0.666048 -0.344961,1.199636 -0.941673,1.531675 0,0 3.330791,2.13927 3.330791,2.13927 v 0 c 0.627312,-0.453781 0.959927,-1.04871 1.086433,-1.819026 0.169074,-0.932072 0.481562,-1.838153 0.511172,-2.79046 -0.02093,-0.419563 0.01085,-0.558816 -0.166823,-0.95377 -0.322032,-0.715822 -0.987575,-1.234744 -1.287663,-1.96551 -0.292449,-0.557374 -0.581462,-1.119669 -0.851974,-1.688039 -0.0702,-0.147487 -0.136536,-0.296998 -0.195736,-0.449234 -0.04629,-0.119038 -0.01159,-0.296915 -0.120418,-0.363759 -1.169749,-0.718431 -2.421448,-1.293993 -3.632173,-1.940989 -0.02529,0.0627 -0.08399,0.120981 -0.07585,0.188092 0.01029,0.0848 0.08317,0.149236 0.125751,0.22329 0.448662,0.780378 0.905288,1.563002 1.536732,2.213973 1.239327,1.479095 -0.353645,-0.410491 0.838372,0.968308 0.22258,0.257461 0.389202,0.565465 0.640021,0.795507 0.05581,0.05118 0.174046,0.02088 0.209524,0.08778 0.02252,0.04245 -0.08706,0.0407 -0.13059,0.06105 -1.241396,0.200684 -2.51777,0.154977 -3.769516,0.225073 -1.422935,-0.02891 -2.848005,-0.165793 -4.215249,-0.584427 z" />
    <path
       style="fill:#008000;fill-opacity:1;stroke-width:0.264583"
       id="path14"
       d="m 77.413066,65.503985 c 1.680633,-0.163917 3.356877,-0.366776 5.039095,-0.517041 1.314027,-0.124203 2.62163,-0.184483 3.933381,-0.0393 0.473236,0.06653 0.949232,0.06942 1.406564,0.221742 0.09443,0.03145 0.357987,0.171955 0.274106,0.118385 -3.308585,-2.113023 -2.056826,-1.955236 -3.543369,-2.111626 -0.135577,-0.06724 -0.269369,-0.1382 -0.40673,-0.20171 -0.485024,-0.224264 -1.895232,-0.988264 -1.423691,-0.736878 0.809042,0.431313 1.574556,0.949057 2.412745,1.320572 0.326777,0.144838 -0.582853,-0.414335 -0.864547,-0.634357 -0.25282,-0.197472 -0.492125,-0.41166 -0.738187,-0.61749 -0.618284,-0.604377 -0.594196,-0.541496 -1.095013,-1.164791 -0.09289,-0.115607 -0.179482,-0.23622 -0.26467,-0.357616 -0.02754,-0.03925 -0.03243,-0.149098 -0.07318,-0.123843 -0.06452,0.03997 -0.04953,0.14348 -0.07429,0.215222 -1.125998,-0.57218 -2.251999,-1.144357 -3.377997,-1.716537 0.76808,0.590267 1.376133,1.354315 2.086325,2.011317 0.354062,0.419648 1.409718,1.005007 1.581451,1.520198 0.02857,0.08571 0.0045,0.180629 0.0068,0.270942 -0.0454,0.124835 -0.0774,0.255399 -0.136212,0.374507 -0.274736,0.556392 -0.691761,1.038772 -1.009208,1.569818 -0.297133,0.497064 -0.357487,0.666437 -0.593815,1.18492 -0.235316,0.540319 -0.357527,1.117529 -0.532689,1.677644 0,0 3.488323,1.896557 3.488323,1.896557 v 0 c 0.131987,-0.554966 0.242601,-1.117621 0.461676,-1.647367 0.515792,-1.169176 1.285486,-2.086161 1.827612,-3.223956 0.02721,-0.150292 0.08738,-0.298247 0.08164,-0.450874 -0.02376,-0.631418 -1.11116,-1.270654 -1.532038,-1.689484 -0.737838,-0.622075 -1.361051,-1.347988 -2.024793,-2.045091 -1.224094,-0.637395 -2.402382,-1.371785 -3.672284,-1.912186 -0.165849,-0.07058 -0.211873,0.36612 -0.127614,0.525454 0.328681,0.621546 0.930921,1.110261 1.382919,1.628167 1.839566,1.603721 3.530724,2.488723 5.809451,3.824099 0.368414,0.215898 1.069993,0.589405 1.531927,0.691613 0.183303,0.04056 0.374798,0.02249 0.562197,0.03374 2.395926,-1.424903 -3.377036,-2.793645 -4.582954,-2.793629 -1.317196,-0.109784 -2.633345,0.0042 -3.947371,0.121742 -1.697715,0.171207 -3.392982,0.367642 -5.095092,0.491533 z" />
    <path
       style="fill:#ff0000;fill-opacity:1;stroke-width:0.264583"
       id="path15"
       d="m 79.239014,81.025348 c 1.448347,-0.0013 2.899428,-0.06516 4.344918,0.03806 1.193134,0.107884 2.384679,0.229629 3.581194,0.293476 1.703041,0.126973 0.236903,-1.29807 -0.2203,-1.780146 -1.116399,-1.198242 -2.252562,-2.374408 -3.464997,-3.475392 -1.227534,-1.049523 -1.60234,-1.408388 -3.91845,-2.295687 -0.185126,-0.07092 -0.168267,0.375719 -0.157001,0.573646 0.01574,0.276739 0.853559,1.144024 1.023898,1.345531 0.701088,0.945068 1.470364,1.79692 2.393289,2.524781 0.168955,0.147201 0.445825,0.339886 0.529198,0.574675 0.190169,0.535548 -0.492974,1.698614 -0.69555,2.163085 -0.396338,0.952564 -0.220512,0.486741 -0.53367,1.395116 0,0 3.431432,1.888212 3.431432,1.888212 v 0 c 0.278582,-0.888918 0.114818,-0.431588 0.501406,-1.368319 0.308515,-0.681548 1.229524,-2.109401 0.750912,-2.866657 -0.08187,-0.129535 -0.2187,-0.214701 -0.328049,-0.322053 -0.277511,-0.218771 -0.573112,-0.414229 -0.847183,-0.637294 -0.62751,-0.510728 -1.072494,-1.213462 -1.594906,-1.822755 -0.07563,-0.08887 -0.937902,-1.176448 -1.031951,-1.188587 -0.113099,-0.01461 -0.192437,0.223575 -0.294876,0.173466 -1.121643,-0.548664 -2.143376,-1.28201 -3.229742,-1.897573 -0.133353,-0.07556 0.245213,0.183954 0.367821,0.275934 1.213022,1.100664 2.409071,2.215755 3.486274,3.454963 0.295429,0.30412 0.535017,0.672227 0.880642,0.917808 0.186756,0.132697 0.677842,0.03868 -0.225935,0.03164 -1.185207,-0.06747 -2.36642,-0.183679 -3.550156,-0.271727 -1.46563,-0.06365 -2.932824,-0.01945 -4.399393,-0.04999 z" />
    <path
       style="fill:#0000ff;fill-opacity:1;stroke-width:0.264583"
       id="path16"
       d="m 42.151699,23.241513 c 5.571696,-0.160463 11.142919,-0.06044 16.714123,0.05831 1.635877,0.03915 3.271801,0.07633 4.907629,0.117434 3.941654,0.09904 5.087279,0.161255 8.982771,0.174014 3.616272,0.01185 7.232473,-0.07687 10.847671,-0.151164 3.926432,-0.09785 7.853227,-0.177254 11.780834,-0.202821 0.70975,-0.0042 1.419511,-0.0034 2.129266,-0.002 0,0 -3.182598,-2.308823 -3.182598,-2.308823 v 0 c -0.69251,0.01143 -1.384988,0.02472 -2.077326,0.04431 -3.860038,0.106135 -7.719722,0.226471 -11.57914,0.352865 -8.189931,0.25637 -16.380682,0.298365 -24.570256,-0.04075 -5.714841,-0.170752 -11.428024,-0.321551 -17.145434,-0.36085 z" />
    <path
       style="fill:#ff0000;fill-opacity:1;stroke-width:0.264583"
       id="path17"
       d="m 42.519726,20.665305 c 3.64634,-0.05093 7.293171,-0.0696 10.939786,-0.09391 6.643602,-0.05565 13.287147,-0.03369 19.93057,0.02877 3.285627,0.03176 6.571382,0.02216 9.857097,0.02508 1.995643,0.0072 3.991213,0.02507 5.986867,0.02947 1.05587,0.0037 2.111735,0.0088 3.167607,0.01143 0.703422,3.18e-4 1.406843,-7.4e-4 2.110267,-1.74e-4 0,0 -3.194309,-2.320802 -3.194309,-2.320802 v 0 c -0.703586,5.82e-4 -1.407168,-5.03e-4 -2.110748,-1.75e-4 -1.045385,0.0026 -2.090759,0.0077 -3.136141,0.01143 -1.968614,0.0044 -3.937138,0.02222 -5.905741,0.02947 -3.262701,0.0029 -6.525445,-0.0069 -9.788059,0.02508 -6.617017,0.06387 -13.234159,0.08343 -19.851367,0.02877 -3.732784,-0.02443 -7.465766,-0.04348 -11.198286,-0.09391 z" />
  </g>
</svg>
